<svg xmlns="http://www.w3.org/2000/svg" viewBox="0 0 120 120" width="120" height="120">
  <style>
    /* Floating animation for banana body */
    @keyframes float {
      0%, 100% { transform: translateY(0); }
      50% { transform: translateY(-4px); }
    }
    /* Orbit animation for sparkles */
    @keyframes orbit1 {
      from { transform: rotate(0deg) translateX(45px) rotate(0deg); }
      to { transform: rotate(360deg) translateX(45px) rotate(-360deg); }
    }
    @keyframes orbit2 {
      from { transform: rotate(120deg) translateX(48px) rotate(-120deg); }
      to { transform: rotate(480deg) translateX(48px) rotate(-480deg); }
    }
    @keyframes orbit3 {
      from { transform: rotate(240deg) translateX(42px) rotate(-240deg); }
      to { transform: rotate(600deg) translateX(42px) rotate(-600deg); }
    }
    /* Twinkle animation */
    @keyframes twinkle {
      0%, 100% { opacity: 1; transform: scale(1); }
      50% { opacity: 0.6; transform: scale(0.7); }
    }
    /* Apply animations */
    .banana-body {
      animation: float 3s ease-in-out infinite;
      transform-origin: center center;
    }
    .sparkle-orbit-1 {
      animation: orbit1 8s linear infinite;
      transform-origin: 60px 55px;
    }
    .sparkle-orbit-2 {
      animation: orbit2 10s linear infinite;
      transform-origin: 60px 55px;
    }
    .sparkle-orbit-3 {
      animation: orbit3 12s linear infinite;
      transform-origin: 60px 55px;
    }
    .sparkle {
      animation: twinkle 2s ease-in-out infinite;
    }
    .sparkle-2 { animation-delay: 0.5s; }
    .sparkle-3 { animation-delay: 1s; }
  </style>

  <defs>
    <!-- Banana body gradient -->
    <linearGradient id="bananaGradient" x1="0%" y1="0%" x2="100%" y2="100%">
      <stop offset="0%" style="stop-color:#FFE135"/>
      <stop offset="100%" style="stop-color:#FFC107"/>
    </linearGradient>
    <!-- Soft shadow -->
    <filter id="shadow" x="-20%" y="-20%" width="140%" height="140%">
      <feDropShadow dx="2" dy="3" stdDeviation="3" flood-color="#00000033"/>
    </filter>
    <!-- Sparkle glow -->
    <filter id="glow">
      <feGaussianBlur stdDeviation="2" result="coloredBlur"/>
      <feMerge>
        <feMergeNode in="coloredBlur"/>
        <feMergeNode in="SourceGraphic"/>
      </feMerge>
    </filter>
  </defs>

  <!-- Orbiting sparkles (behind banana) -->
  <g filter="url(#glow)">
    <!-- Sparkle 1 - orbiting -->
    <g class="sparkle-orbit-1">
      <polygon class="sparkle" points="0,-6 2,0 8,0 3,4 5,10 0,6 -5,10 -3,4 -8,0 -2,0" fill="#3B82F6" transform="translate(60,10)"/>
    </g>
    <!-- Sparkle 2 - orbiting -->
    <g class="sparkle-orbit-2">
      <polygon class="sparkle sparkle-2" points="0,-5 1.5,0 6,0 2.5,3 4,8 0,5 -4,8 -2.5,3 -6,0 -1.5,0" fill="#60A5FA" transform="translate(60,7)"/>
    </g>
    <!-- Sparkle 3 - orbiting -->
    <g class="sparkle-orbit-3">
      <polygon class="sparkle sparkle-3" points="0,-4 1,0 5,0 2,2.5 3,6 0,4 -3,6 -2,2.5 -5,0 -1,0" fill="#93C5FD" transform="translate(60,13)"/>
    </g>
  </g>

  <!-- Banana mascot body (floating) -->
  <g class="banana-body" filter="url(#shadow)">
    <path d="M35 85 Q20 65 28 42 Q38 20 60 18 Q82 16 95 38 Q102 55 92 72 Q80 90 58 92 Q42 92 35 85 Z"
          fill="url(#bananaGradient)"
          stroke="#E6A800"
          stroke-width="2.5"/>
    <!-- Highlight shine -->
    <path d="M40 75 Q30 58 42 38 Q52 25 68 26"
          fill="none"
          stroke="#FFF59D"
          stroke-width="4"
          stroke-linecap="round"
          opacity="0.8"/>

    <!-- Happy face -->
    <!-- Left eye -->
    <ellipse cx="52" cy="48" rx="6" ry="7" fill="#4A3728"/>
    <ellipse cx="54" cy="46" rx="2" ry="2.5" fill="white"/>
    <!-- Right eye -->
    <ellipse cx="72" cy="48" rx="6" ry="7" fill="#4A3728"/>
    <ellipse cx="74" cy="46" rx="2" ry="2.5" fill="white"/>
    <!-- Smile -->
    <path d="M50 62 Q62 74 74 62" fill="none" stroke="#4A3728" stroke-width="3" stroke-linecap="round"/>
    <!-- Rosy cheeks -->
    <ellipse cx="44" cy="58" rx="5" ry="3" fill="#FFB6C1" opacity="0.5"/>
    <ellipse cx="80" cy="58" rx="5" ry="3" fill="#FFB6C1" opacity="0.5"/>

    <!-- Little arms -->
    <path d="M32 58 Q22 55 18 48" fill="none" stroke="#E6A800" stroke-width="4" stroke-linecap="round"/>
    <path d="M92 58 Q102 55 106 48" fill="none" stroke="#E6A800" stroke-width="4" stroke-linecap="round"/>
    <!-- Hands (tiny circles) -->
    <circle cx="16" cy="46" r="4" fill="url(#bananaGradient)" stroke="#E6A800" stroke-width="1.5"/>
    <circle cx="108" cy="46" r="4" fill="url(#bananaGradient)" stroke="#E6A800" stroke-width="1.5"/>
  </g>
</svg>
